<svg id="Ebene_1" data-name="Ebene 1"
    xmlns="http://www.w3.org/2000/svg" viewBox="0 0 185.98 185.91">
    <defs>
        <style>.cls-1{fill:#fff;}.cls-2{fill:#1d1d1b;}</style>
    </defs>
    <title>Bus_Pikto_neu</title>
    <rect class="cls-1" x="0.5" y="0.5" width="184.98" height="184.91"/>
    <path class="cls-2" d="M185,1V184.91H1V1H185m1-1H0V185.91H186V0h0Z"/>
    <path class="cls-2" d="M170.64,126.21L167.7,84.3s0-10.76-19.76-10.76H108.33L86.85,77.71H6.75v10H22.27V116.1H6.75v24H89.11a15.95,15.95,0,1,1,31.37,0h40.25l8,0C171,135.14,170.64,126.21,170.64,126.21Zm-117,4.27h-25V87.67h25v42.81Zm31.9-14.38H60.05V87.67h25.5V116.1Zm31.55,0H91.6V87.67h25.5V116.1Zm31.31,14.38h-25V87.67h25v42.81Zm6.2-14V87.67h7.73l2,28.85h-9.77Z"/>
    <circle class="cls-2" cx="104.79" cy="137.25" r="10.87"/>
</svg>