<svg id="Ebene_1" data-name="Ebene 1"
    xmlns="http://www.w3.org/2000/svg" viewBox="0 0 183.98 183.91">
    <defs>
        <style>.cls-1{fill:none;stroke:#1d1d1b;stroke-miterlimit:2.61;stroke-width:2.83px;}.cls-2{fill:#1d1d1b;}</style>
    </defs>
    <title>Straßenbahn_links</title>
    <path class="cls-2" d="M348.9,322.31a100.82,100.82,0,0,1,.57-10.08q0.57-5.55,1.25-10.42t1.36-8.38q0.68-3.51.91-4.19a8.74,8.74,0,0,1,3.85-4.53q6.57-4.76,18.12-4.76h14.49l-20.16-16.31,28.08-21.51h7q2.49,0,2.49,2.26a2.2,2.2,0,0,1-2.49,2.49h-5.44l-22.2,16.76L396.68,280h35.55l4.08,4.08h70.21v9.74h-9.29v28.54h9.29v20.61H352.07q-0.68-3.62-1.58-7.47-0.68-3.17-1.13-6.79a52.53,52.53,0,0,1-.45-6.34h0Zm157.62,30.35H334.85v-5.89H506.52v5.89h0Zm-39.63-58.88v28.54h24.46V293.78H466.89Zm-30.57,0v28.54h24.46V293.78H436.31Zm-30.57,0v28.54H430.2V293.78H405.74Zm-30.57,0v42.58h24.46V293.78H375.17ZM355.35,315q-0.34,4-.34,7.36h14V293.78H358.41q-0.45,2.27-1,5.78T356.26,307q-0.56,4-.91,7.93h0Z" transform="translate(-329 -207.28)"/>
</svg>