<?xml version="1.0" encoding="utf-8"?>
<!-- Generator: Adobe Illustrator 16.0.3, SVG Export Plug-In . SVG Version: 6.00 Build 0)  -->
<!DOCTYPE svg PUBLIC "-//W3C//DTD SVG 1.1//EN" "http://www.w3.org/Graphics/SVG/1.1/DTD/svg11.dtd" [
	<!ENTITY ns_flows "http://ns.adobe.com/Flows/1.0/">
	<!ENTITY ns_extend "http://ns.adobe.com/Extensibility/1.0/">
	<!ENTITY ns_ai "http://ns.adobe.com/AdobeIllustrator/10.0/">
	<!ENTITY ns_graphs "http://ns.adobe.com/Graphs/1.0/">
]>
<svg version="1.1" id="Ebene_1" xmlns:x="&ns_extend;" xmlns:i="&ns_ai;" xmlns:graph="&ns_graphs;"
	 xmlns="http://www.w3.org/2000/svg" xmlns:xlink="http://www.w3.org/1999/xlink" xmlns:a="http://ns.adobe.com/AdobeSVGViewerExtensions/3.0/"
	 x="0px" y="0px" width="283.46px" height="283.46px" viewBox="0 0 283.46 283.46" enable-background="new 0 0 283.46 283.46"
	 xml:space="preserve">
<g>
	<polygon fill-rule="evenodd" clip-rule="evenodd" fill="#A762A3" points="0,0 283.465,0 283.465,283.465 0,283.465 0,0 	"/>
	<path fill-rule="evenodd" clip-rule="evenodd" fill="#FFFFFF" d="M247.354,111.827c0,11.049-2.605,20.221-7.771,27.484
		c-5.177,7.265-14.899,15.415-29.147,24.484c-13.182,8.32-22.152,15.856-26.983,22.574l-0.102,0.206h64.004v25.164H147.63l0,0
		c0-13.334,3.394-24.756,10.139-34.27c6.746-9.515,19.45-20.801,38.113-33.861c8.355-5.799,14.248-11.117,17.672-15.96
		c3.388-4.807,5.1-10.195,5.1-16.128c0-6.446-1.879-11.663-5.613-15.584c-3.733-3.921-8.701-5.9-14.827-5.9
		c-6.578,0-11.678,2.456-15.376,7.401c-3.667,4.91-5.379,11.627-5.105,20.085l0,0H149.55l0,0
		c-0.478-15.789,3.698-28.304,12.501-37.579c8.763-9.241,20.888-13.877,36.365-13.877c14.351,0,26.13,4.262,35.309,12.787
		C242.797,87.377,247.354,98.357,247.354,111.827L247.354,111.827z"/>
	<path fill-rule="evenodd" clip-rule="evenodd" fill="#FFFFFF" d="M35.549,69.446l-0.222,99.196
		c0,14.621,3.544,22.932,10.135,30.574c7.81,8.973,20.991,16.338,44.53,16.338c36.333,0,53.889-19.162,53.889-47.631v-0.003
		l-0.106-98.475h-27.697v94.157c0,11.573-1.661,15.287-4.319,19.274c-3.932,5.981-11.023,10.413-21.822,10.413
		c-17.446,0-26.917-10.248-26.917-27.418l0.222-96.538L35.549,69.446L35.549,69.446z"/>
</g>
<g>
</g>
<g>
</g>
<g>
</g>
<g>
</g>
<g>
</g>
<g>
</g>
</svg>
