<?xml version="1.0" encoding="utf-8"?>
<!-- Generator: Adobe Illustrator 16.0.3, SVG Export Plug-In . SVG Version: 6.00 Build 0)  -->
<!DOCTYPE svg PUBLIC "-//W3C//DTD SVG 1.1//EN" "http://www.w3.org/Graphics/SVG/1.1/DTD/svg11.dtd" [
	<!ENTITY ns_flows "http://ns.adobe.com/Flows/1.0/">
	<!ENTITY ns_extend "http://ns.adobe.com/Extensibility/1.0/">
	<!ENTITY ns_ai "http://ns.adobe.com/AdobeIllustrator/10.0/">
	<!ENTITY ns_graphs "http://ns.adobe.com/Graphs/1.0/">
]>
<svg version="1.1" id="Ebene_1" xmlns:x="&ns_extend;" xmlns:i="&ns_ai;" xmlns:graph="&ns_graphs;"
	 xmlns="http://www.w3.org/2000/svg" xmlns:xlink="http://www.w3.org/1999/xlink" xmlns:a="http://ns.adobe.com/AdobeSVGViewerExtensions/3.0/"
	 x="0px" y="0px" width="283.46px" height="283.46px" viewBox="0 0 283.46 283.46" enable-background="new 0 0 283.46 283.46"
	 xml:space="preserve">
<g>
	<polygon fill-rule="evenodd" clip-rule="evenodd" fill="#EE7D00" points="0,-0.001 283.465,-0.001 283.465,283.466 0,283.466 
		0,-0.001 	"/>
	<path fill-rule="evenodd" clip-rule="evenodd" fill="#FFFFFF" d="M36.278,70.671l-0.221,99.198c0,14.625,3.544,22.93,10.135,30.574
		c7.81,8.971,20.992,16.337,44.531,16.337c36.332,0,53.889-19.161,53.889-47.632l0,0l-0.109-98.478h-27.694v94.159
		c0,11.571-1.661,15.285-4.319,19.272c-3.933,5.983-11.022,10.413-21.822,10.413c-17.446,0-26.918-10.245-26.918-27.415
		l0.222-96.539L36.278,70.671L36.278,70.671z"/>
	<path fill="#FFFFFF" d="M219.05,111.541c0-5.635-1.631-10.218-4.892-13.681c-3.226-3.496-7.533-5.227-12.933-5.227
		c-6.213,0-11.063,1.968-14.462,5.906c-3.429,3.971-5.191,9.573-5.329,16.871l0,0h-26.241l0,0
		c0.208-14.767,4.45-26.173,12.801-34.149c8.315-7.978,20.029-11.983,35.131-11.983c13.004,0,23.661,3.768,31.946,11.338
		c8.279,7.57,12.425,17.278,12.425,29.125c0,10.286-4.313,18.705-12.934,25.29l-3.906,2.58l0,0c3.328,1.256,6.248,2.919,8.758,4.956
		c8.32,6.451,12.46,16.127,12.46,29.06c0,14.259-4.479,25.561-13.476,33.912c-8.996,8.351-21.116,12.526-36.355,12.526
		c-15.722,0-27.907-4.141-36.563-12.39c-8.655-8.249-13.069-19.993-13.272-35.237l0,0h27.734l0,0
		c0.138,8.147,1.971,14.36,5.532,18.637c3.53,4.277,8.66,6.416,15.381,6.416c6.481,0,11.744-2.139,15.717-6.451
		c3.972-4.313,5.974-9.981,5.974-17.007c0-6.177-2.002-11.17-5.974-14.934c-3.531-3.262-7.98-5.06-13.345-5.466
		c-2.986-0.203-5.771-0.305-8.315-0.341c-2.545-0.035-4.176,0.036-4.922,0.239v-21.084c0.782,0.102,2.479,0.136,5.095,0.034
		c2.575-0.102,5.328-0.306,8.249-0.645c4.511-0.543,8.077-2.104,10.724-4.685C217.384,121.961,219.05,117.447,219.05,111.541
		L219.05,111.541z"/>
</g>
<g>
</g>
<g>
</g>
<g>
</g>
<g>
</g>
<g>
</g>
<g>
</g>
</svg>
